# xmcd
#
# Track frame offsets:
#	150
#	17220
#	42794
#	59023
#	76216
#	93421
#	110315
#	128367
#	141548
#	158624
#	168656
#	178597
#
# Disc length: 2687 seconds
#
# Revision: 0
# Processed by: cddbd v1.5.2PL0 Copyright (c) Steve Scherf et al.
# Submitted via: audiograbber 1.83.01
#
DISCID=980a7d0c
DTITLE=Adamo - Seiltanz - Kieselsteine 2
DYEAR=1974
DGENRE=Chanson
TTITLE0=Diese Welt Ist Ein Jahrmarkt
TTITLE1=In Deinen Armen Sterben 
TTITLE2=Wenn Du Wiederkommst 
TTITLE3=Man Schlägt Sich Immer Irgendwo
TTITLE4=Für Die, Die Noch Träumen Können 
TTITLE5=Meine Freiheit, Meine Ungetreue
TTITLE6=Lied In Scheiben
TTITLE7=Und Uns're Liebe Stirbt
TTITLE8=Die Goldene Kutsche
TTITLE9=Amorine 
TTITLE10=Die Sünderin 
TTITLE11=Es War Einmal Ein Mädchen, Das Glaubte An Fliegende Walfische 
EXTD=
EXTT0=
EXTT1=
EXTT2=
EXTT3=
EXTT4=
EXTT5=
EXTT6=
EXTT7=
EXTT8=
EXTT9=
EXTT10=
EXTT11=
PLAYORDER=
